# xmcd
#
# Track frame offsets: 
#        182
#        14057
#        33407
#        64495
#        81582
#        94270
#        120807
#        143457
#        162107
#        170657
#        186357
#        204632
#        224882
#        233357
#        246220
#        280332
#        297557
#        314332
#
# Disc length: 4463 seconds
#
# Revision: 3
# Processed by: cddbd v1.5.2PL0 Copyright (c) Steve Scherf et al.
# Submitted via: ExactAudioCopy v0.95b4
#
DISCID=15116d12
DTITLE=Cuby and the Blizzards - Cuby's Blues: The Best of Cuby and Blizz
DTITLE=ards
DYEAR=1969
DGENRE=Blues
TTITLE0=Distant Smile
TTITLE1=Five Long Years
TTITLE2=Somebody Will Know Someday
TTITLE3=The Big Boat
TTITLE4=The Sunshine of Your Shadow
TTITLE5=The Sky Is Crying
TTITLE6=Don't Know Which Way to Go
TTITLE7=116 A Queensway
TTITLE8=Another Day, Another Road
TTITLE9=Window of My Eyes
TTITLE10=Crying Tears
TTITLE11=Little Red Rooster
TTITLE12=Things I Remember
TTITLE13=Just for Fun
TTITLE14=Gin House Blues
TTITLE15=Mr. Highway Man
TTITLE16=Down the Road
TTITLE17=Back Home (A Man)
EXTD=The Best Of Cuby+Blizzards
EXTT0=1967 - H. Muskee/E. Gelling
EXTT1=1966 - E. Boyd
EXTT2=1967 - H. Muskee/E. Gelling
EXTT3=1967 - E. Bpyd
EXTT4=1968 - H. Muskee/E. Gelling
EXTT5=1968, E. James, L. Lewis
EXTT6=1967 - W. Dixen/L. Perkins
EXTT7=1968 - H. Muskee/E. Gelling
EXTT8=1967 - H. Brood/H. Muskee
EXTT9=1968 - H. Muskee/E. Gelling
EXTT10=1968 - S. Smothers/J. Jackson
EXTT11=1967 - W. Dixson
EXTT12=1966 - H. Muskee/E. Gelling
EXTT13=1966 - H. Muskee/E. Gelling
EXTT14=1966 - H. Troy/F. Henderson
EXTT15=1967 - E. Boyd
EXTT16=1968 - H. Muskee/E. Gelling
EXTT17=1966 - H. Muskee/E. Gelling
PLAYORDER=
